<svg width="24" height="24" viewBox="0 0 24 24" fill="none" xmlns="http://www.w3.org/2000/svg">
<path fill-rule="evenodd" clip-rule="evenodd" d="M12 19.5C12.2761 19.5 12.5 19.7239 12.5 20V21.5C12.5 21.7761 12.2761 22 12 22C11.7239 22 11.5 21.7761 11.5 21.5V20C11.5 19.7239 11.7239 19.5 12 19.5Z" fill="#EB5454"/>
<path fill-rule="evenodd" clip-rule="evenodd" d="M13.835 2.99337C12.8942 1.81744 11.1057 1.81744 10.165 2.99337C9.90879 3.31359 9.52094 3.50001 9.11085 3.50001L8.62029 3.49999C8.04638 3.49979 7.65465 3.49965 7.3199 3.59429C6.48393 3.83061 5.83058 4.48396 5.59425 5.31993C5.49962 5.65468 5.49976 6.04641 5.49996 6.62032L5.49998 14.9906C5.49985 14.9971 5.49985 15.0037 5.49998 15.0102L5.49998 15.5178C5.49997 15.9686 5.49997 16.3323 5.52017 16.6284C5.54093 16.9327 5.58471 17.2019 5.69028 17.4567C5.94401 18.0693 6.4307 18.556 7.04327 18.8097C7.29812 18.9153 7.56726 18.9591 7.87163 18.9798C8.05389 18.9923 8.26183 18.997 8.49998 18.9989L8.49996 19.2696C8.49977 19.3978 8.49946 19.6109 8.56091 19.8116C8.63718 20.0606 8.80734 20.2955 9.11729 20.4239C9.23431 20.4724 9.34717 20.4876 9.44236 20.4941C9.5294 20.5 9.63171 20.5 9.73674 20.5H14.2632C14.3682 20.5 14.4705 20.5 14.5576 20.4941C14.6528 20.4876 14.7656 20.4724 14.8827 20.4239C15.1926 20.2955 15.3628 20.0606 15.439 19.8116C15.5005 19.6109 15.5002 19.3978 15.5 19.2696L15.5 18.9989C15.7381 18.997 15.9461 18.9923 16.1283 18.9798C16.4327 18.9591 16.7018 18.9153 16.9567 18.8097C17.5693 18.556 18.0559 18.0693 18.3097 17.4567C18.4152 17.2019 18.459 16.9327 18.4798 16.6284C18.5 16.3324 18.5 15.9686 18.5 15.5178V15.0044C18.5 15.003 18.5 15.0015 18.5 15C18.5 14.9985 18.5 14.9971 18.5 14.9956L18.5 6.62032C18.5002 6.04641 18.5003 5.65468 18.4057 5.31993C18.1694 4.48396 17.516 3.83061 16.6801 3.59429C16.3453 3.49965 15.9536 3.49979 15.3797 3.49999L14.8891 3.50001C14.479 3.50001 14.0912 3.31359 13.835 2.99337ZM17.5 14.3167V6.70157C17.5 6.01508 17.4952 5.77525 17.4434 5.59196C17.3016 5.09038 16.9096 4.69837 16.408 4.55657C16.2247 4.50476 15.9849 4.50001 15.2984 4.50001H14.8891C14.1752 4.50001 13.5001 4.1755 13.0541 3.61806C12.5137 2.94254 11.4863 2.94254 10.9458 3.61806C10.4999 4.1755 9.82472 4.50001 9.11085 4.50001H8.70154C8.01505 4.50001 7.77522 4.50476 7.59193 4.55657C7.09035 4.69837 6.69834 5.09038 6.55654 5.59196C6.50473 5.77525 6.49998 6.01509 6.49998 6.70157V14.6036C8.29181 15.0032 9.50297 14.9735 11.3813 14.5143C11.91 14.3851 12.2916 14.1238 12.7352 13.8201C12.807 13.771 12.8803 13.7208 12.9562 13.6698C13.4897 13.3115 14.1188 12.9473 15.0294 13.0009C15.8594 13.0497 16.4734 13.5288 16.9257 13.8868L16.9876 13.9359C17.1814 14.0895 17.3421 14.217 17.5 14.3167ZM9.49998 19.25V19H14.5V19.25C14.5 19.324 14.4997 19.3788 14.4962 19.4287C14.4941 19.4589 14.4911 19.4809 14.4882 19.4965C14.4395 19.4997 14.3722 19.5 14.25 19.5H9.74998C9.62779 19.5 9.56044 19.4997 9.51178 19.4965C9.50882 19.4809 9.50586 19.4589 9.50374 19.4287C9.50025 19.3788 9.49998 19.324 9.49998 19.25Z" fill="#EB5454"/>
</svg>
