<svg width="24" height="24" viewBox="0 0 24 24" fill="none" xmlns="http://www.w3.org/2000/svg">
<path d="M2.5 9.33876C2.5 6.14229 4.93504 3.5 8.004 3.5C9.58833 3.5 11.0048 4.20987 12.0002 5.33332C12.9974 4.20958 14.4199 3.5 15.996 3.5C19.065 3.5 21.5 6.14229 21.5 9.33876C21.5 10.051 21.4051 10.7759 21.2271 11.5H18.2071L17.0988 10.3917C16.7368 10.0297 16.1266 10.1288 15.8977 10.5866L14.863 12.6559L14.0622 11.8551C13.7345 11.5274 13.191 11.5724 12.9216 11.9495L11.2378 14.3069L10.1335 9.52135C9.97898 8.85198 9.08066 8.72525 8.74704 9.32576L6.93737 12.5832L6.07295 11.4306C5.7991 11.0655 5.26535 11.0275 4.94262 11.3503L4.29289 12H2.82829C2.61432 11.1458 2.5 10.2564 2.5 9.33876Z" fill="#EB5454"/>
<path d="M3.12922 13C4.48399 16.845 7.87599 19.8668 11.8228 21.363C11.937 21.4063 12.063 21.4063 12.1772 21.363C14.7729 20.379 17.0953 18.5473 18.77 16.3901C19.7099 15.1793 20.4561 13.8524 20.9291 12.5H18.1036C17.9046 12.5 17.7139 12.421 17.5732 12.2803L16.637 11.3441L15.6023 13.4134C15.3734 13.8712 14.7632 13.9703 14.4012 13.6083L13.5638 12.7709L11.7292 15.3394C11.3537 15.8651 10.5334 15.7016 10.3881 15.0721L9.30532 10.38L7.6243 13.4058C7.36041 13.8808 6.69472 13.9263 6.36869 13.4916L5.4459 12.2612L4.92678 12.7803C4.78612 12.921 4.59536 13 4.39645 13H3.12922Z" fill="#EB5454"/>
</svg>
