<svg width="58" height="58" viewBox="0 0 58 58" fill="none" xmlns="http://www.w3.org/2000/svg">
<path d="M38.0288 29.8486C39.589 28.7561 40.2019 26.8387 39.6338 25.2181C39.4511 24.6969 39.5451 24.0744 39.9975 23.7576L46.135 19.4601C46.3652 19.2989 46.4174 18.9798 46.2505 18.7537L43.7878 15.4156C43.6267 15.1972 43.3209 15.1472 43.0987 15.3028L37.0454 19.5414C36.593 19.8582 35.9758 19.7336 35.5485 19.3837C34.2199 18.2956 32.2086 18.2157 30.6483 19.3082C28.7906 20.609 28.2759 23.0793 29.4987 24.8257C30.018 25.5673 30.7671 26.0591 31.5995 26.2799C31.7284 26.3141 31.8148 26.4375 31.8028 26.5703C31.7256 27.428 31.9316 28.3002 32.4509 29.0418C33.6737 30.7882 36.171 31.1494 38.0288 29.8486Z" fill="white"/>
<path d="M19.2941 27.2585C17.7362 28.3493 17.1253 30.2652 17.694 31.8855C17.8769 32.4066 17.7828 33.0291 17.3304 33.3459L11.3088 37.5623C11.0873 37.7174 11.0293 38.0206 11.1778 38.2465L13.4569 41.7132C13.6118 41.9487 13.9306 42.0098 14.1615 41.8481L20.2826 37.5621C20.735 37.2453 21.3522 37.3698 21.7793 37.7199C23.1073 38.8085 25.1167 38.8897 26.6745 37.7989C28.5294 36.5001 29.0418 34.0314 27.819 32.2851C27.2996 31.5434 26.5508 31.0512 25.719 30.8299C25.5904 30.7957 25.5041 30.6725 25.5159 30.5399C25.5925 29.6826 25.3861 28.8106 24.8668 28.0689C23.6439 26.3225 21.1489 25.9597 19.2941 27.2585Z" fill="white"/>
<path fill-rule="evenodd" clip-rule="evenodd" d="M21.6045 18.4543C22.0757 18.1243 22.7253 18.2389 23.0552 18.7101L23.9002 19.9168C24.2302 20.3881 24.1156 21.0376 23.6444 21.3676C23.1731 21.6976 22.5236 21.583 22.1936 21.1118L21.3487 19.9051C21.0187 19.4338 21.1332 18.7843 21.6045 18.4543Z" fill="white"/>
<path fill-rule="evenodd" clip-rule="evenodd" d="M26.6671 17.9795C27.2336 18.0794 27.6119 18.6197 27.512 19.1862L27.3311 20.212C27.2312 20.7786 26.691 21.1569 26.1244 21.057C25.5579 20.9571 25.1796 20.4168 25.2795 19.8503L25.4603 18.8244C25.5602 18.2579 26.1005 17.8796 26.6671 17.9795Z" fill="white"/>
<path fill-rule="evenodd" clip-rule="evenodd" d="M19.4268 23.0492C19.5267 22.4826 20.0669 22.1043 20.6335 22.2042L21.6593 22.3851C22.2259 22.485 22.6042 23.0253 22.5043 23.5918C22.4044 24.1584 21.8641 24.5367 21.2976 24.4368L20.2717 24.2559C19.7052 24.156 19.3269 23.6157 19.4268 23.0492Z" fill="white"/>
<path fill-rule="evenodd" clip-rule="evenodd" d="M36.3187 39.4685C35.8475 39.7985 35.198 39.6839 34.868 39.2127L34.023 38.006C33.6931 37.5347 33.8076 36.8852 34.2788 36.5552C34.7501 36.2252 35.3996 36.3397 35.7296 36.811L36.5746 38.0177C36.9045 38.489 36.79 39.1385 36.3187 39.4685Z" fill="white"/>
<path fill-rule="evenodd" clip-rule="evenodd" d="M31.2561 39.9433C30.6896 39.8434 30.3113 39.3031 30.4112 38.7366L30.5921 37.7107C30.692 37.1442 31.2322 36.7659 31.7988 36.8658C32.3654 36.9657 32.7437 37.506 32.6438 38.0725L32.4629 39.0983C32.363 39.6649 31.8227 40.0432 31.2561 39.9433Z" fill="white"/>
<path fill-rule="evenodd" clip-rule="evenodd" d="M38.4964 34.8736C38.3965 35.4401 37.8563 35.8184 37.2897 35.7185L36.2639 35.5376C35.6973 35.4377 35.319 34.8975 35.4189 34.3309C35.5188 33.7644 36.0591 33.3861 36.6256 33.486L37.6515 33.6668C38.218 33.7667 38.5963 34.307 38.4964 34.8736Z" fill="white"/>
</svg>
